/* XPM */
static char * favicon_xpm[] = {
"16 16 6 1",
" 	c None",
".	c #000000",
"+	c #E7ED00",
"@	c #CE4804",
"#	c #080061",
"$	c #0097C8",
"                ",
"                ",
"  .     .    .  ",
" .+.   .+.  .@. ",
" .++. .++. .@@. ",
"  .++.++.@.@@.  ",
"   .+++..@@@.   ",
"  . .+. ..@. .  ",
" .#. ...$.. .$. ",
" .##..#.$$..$$. ",
"  .#####.$$$$.  ",
"   .###..$$$.   ",
"    .#.  .$.    ",
"     .    .     ",
"                ",
"                "};
