<?xml version="1.0" encoding="UTF-8" standalone="no"?>
<!-- Created with Inkscape (http://www.inkscape.org/) -->
<svg
   xmlns:dc="http://purl.org/dc/elements/1.1/"
   xmlns:cc="http://web.resource.org/cc/"
   xmlns:rdf="http://www.w3.org/1999/02/22-rdf-syntax-ns#"
   xmlns:svg="http://www.w3.org/2000/svg"
   xmlns="http://www.w3.org/2000/svg"
   xmlns:sodipodi="http://sodipodi.sourceforge.net/DTD/sodipodi-0.dtd"
   xmlns:inkscape="http://www.inkscape.org/namespaces/inkscape"
   width="744.09448819"
   height="1052.3622047"
   id="svg2312"
   sodipodi:version="0.32"
   inkscape:version="0.45.1"
   sodipodi:docbase="/var/lib/interchange/catalogs/ww_dev1/static/images/style"
   sodipodi:docname="logo.svg"
   inkscape:output_extension="org.inkscape.output.svg.inkscape">
  <defs
     id="defs2314" />
  <sodipodi:namedview
     id="base"
     pagecolor="#ffffff"
     bordercolor="#666666"
     borderopacity="1.0"
     gridtolerance="10000"
     guidetolerance="10"
     objecttolerance="10"
     inkscape:pageopacity="0.0"
     inkscape:pageshadow="2"
     inkscape:zoom="0.49497475"
     inkscape:cx="129.38253"
     inkscape:cy="871.13855"
     inkscape:document-units="px"
     inkscape:current-layer="layer1"
     showguides="true"
     inkscape:guide-bbox="true"
     inkscape:window-width="872"
     inkscape:window-height="622"
     inkscape:window-x="0"
     inkscape:window-y="25">
    <sodipodi:guide
       orientation="horizontal"
       position="924.28958"
       id="guide2332" />
    <sodipodi:guide
       orientation="horizontal"
       position="1000.5561"
       id="guide2334" />
    <sodipodi:guide
       orientation="vertical"
       position="197.9899"
       id="guide2336" />
    <sodipodi:guide
       orientation="vertical"
       position="622.25397"
       id="guide2338" />
    <sodipodi:guide
       orientation="horizontal"
       position="869.74134"
       id="guide2340" />
    <sodipodi:guide
       orientation="vertical"
       position="89.903577"
       id="guide2342" />
  </sodipodi:namedview>
  <metadata
     id="metadata2317">
    <rdf:RDF>
      <cc:Work
         rdf:about="">
        <dc:format>image/svg+xml</dc:format>
        <dc:type
           rdf:resource="http://purl.org/dc/dcmitype/StillImage" />
      </cc:Work>
    </rdf:RDF>
  </metadata>
  <g
     inkscape:label="Layer 1"
     inkscape:groupmode="layer"
     id="layer1">
    <rect
       style="opacity:0;fill:#ffffff;fill-opacity:0;stroke:none;stroke-width:1;stroke-linecap:butt;stroke-linejoin:miter;stroke-miterlimit:13.80000019;stroke-dasharray:none;stroke-dashoffset:0;stroke-opacity:1"
       id="rect3282"
       width="107.22242"
       height="107.22242"
       x="89.633064"
       y="36.362007" />
    <text
       xml:space="preserve"
       style="font-size:105.06977081px;font-style:normal;font-variant:normal;font-weight:bold;font-stretch:normal;text-align:end;line-height:100%;writing-mode:lr-tb;text-anchor:end;fill:#0e094d;fill-opacity:1;stroke:none;stroke-width:1px;stroke-linecap:butt;stroke-linejoin:miter;stroke-opacity:1;font-family:Trebuchet MS"
       x="625.60797"
       y="127.63805"
       id="text3337"
       sodipodi:linespacing="100%"><tspan
         sodipodi:role="line"
         id="tspan3339"
         x="625.60797"
         y="127.63805">WellWell</tspan></text>
    <path
       style="fill:#db4d04;fill-opacity:0.78431373;stroke:#000000;stroke-width:2.0703392;stroke-linecap:butt;stroke-linejoin:miter;stroke-miterlimit:13.80000019;stroke-dasharray:none;stroke-dashoffset:0;stroke-opacity:1"
       d="M 134.63831,65.319294 L 146.49264,53.465364 L 164.82643,71.799514 L 183.16091,53.465364 L 195.01451,65.319294 L 164.82643,95.507404 L 134.63831,65.319294 z "
       id="rect2382" />
    <path
       id="path3358"
       d="M 97.961891,65.163114 L 109.81618,53.309154 L 128.15,71.643264 L 146.48449,53.309154 L 158.33812,65.163114 L 128.15,95.351224 L 97.961891,65.163114 z "
       style="fill:#e7ed00;fill-opacity:0.78431373;stroke:#000000;stroke-width:2.0703392;stroke-linecap:butt;stroke-linejoin:miter;stroke-miterlimit:13.80000019;stroke-dasharray:none;stroke-dashoffset:0;stroke-opacity:1" />
    <path
       style="fill:#080065;fill-opacity:0.78431373;stroke:#000000;stroke-width:2.0703392;stroke-linecap:butt;stroke-linejoin:miter;stroke-miterlimit:13.80000019;stroke-dasharray:none;stroke-dashoffset:0;stroke-opacity:1"
       d="M 158.41496,96.865184 L 146.56066,85.011224 L 128.22688,103.34534 L 109.89239,85.011224 L 98.038761,96.865184 L 128.22688,127.0533 L 158.41496,96.865184 z "
       id="path3360" />
    <path
       id="path3362"
       d="M 195.13701,96.735764 L 183.28268,84.881834 L 164.9489,103.21598 L 146.61438,84.881834 L 134.76078,96.735764 L 164.9489,126.92387 L 195.13701,96.735764 z "
       style="fill:#00b9ed;fill-opacity:0.78431373;stroke:#000000;stroke-width:2.0703392;stroke-linecap:butt;stroke-linejoin:miter;stroke-miterlimit:13.80000019;stroke-dasharray:none;stroke-dashoffset:0;stroke-opacity:1" />
    <text
       xml:space="preserve"
       style="font-size:43.88175583px;font-style:normal;font-variant:normal;font-weight:normal;font-stretch:normal;text-align:start;line-height:100%;writing-mode:lr-tb;text-anchor:start;fill:#070065;fill-opacity:0.78431373;stroke:none;stroke-width:1px;stroke-linecap:butt;stroke-linejoin:miter;stroke-opacity:1;font-family:Trebuchet MS"
       x="199.25375"
       y="172.394"
       id="text3418"
       sodipodi:linespacing="100%"><tspan
         sodipodi:role="line"
         id="tspan3420"
         x="199.25375"
         y="172.394"><tspan
           id="tspan3498"
           style="font-size:43.88175583px;font-style:normal;font-variant:normal;font-weight:bold;font-stretch:normal;text-align:start;line-height:100%;writing-mode:lr-tb;text-anchor:start;font-family:Trebuchet MS">the</tspan><tspan
           id="tspan3496"
           style="font-size:43.88175583px;font-style:normal;font-variant:normal;font-weight:normal;font-stretch:normal;text-align:start;line-height:100%;writing-mode:lr-tb;text-anchor:start;font-family:Trebuchet MS"> interchange</tspan><tspan
           id="tspan3504"
           style="font-size:43.88175583px;font-style:normal;font-variant:normal;font-weight:bold;font-stretch:normal;text-align:start;line-height:100%;writing-mode:lr-tb;text-anchor:start;font-family:Trebuchet MS"> shop</tspan></tspan></text>
    <path
       style="opacity:0;fill:#ffffff;fill-opacity:0;stroke:none;stroke-width:1;stroke-linecap:butt;stroke-linejoin:miter;stroke-miterlimit:13.80000019;stroke-dashoffset:0;stroke-opacity:1"
       d="M 89.90358,193.94792 L 197.126,193.94792 L 197.126,301.17034 L 89.90358,301.17034 L 89.90358,193.94792 z "
       id="rect2175" />
    <path
       style="font-size:105.06977081px;font-style:normal;font-variant:normal;font-weight:bold;font-stretch:normal;text-align:end;line-height:100%;writing-mode:lr-tb;text-anchor:end;fill:#0e094d;fill-opacity:1;stroke:none;stroke-width:1px;stroke-linecap:butt;stroke-linejoin:miter;stroke-opacity:1;font-family:Trebuchet MS"
       d="M 267.31763,286.25001 L 261.82814,286.25001 L 245.41099,238.84548 L 229.45557,286.25001 L 223.96608,286.25001 L 199.28905,210.06417 L 213.19233,210.06417 L 227.30082,255.41655 L 242.53799,210.06417 L 248.3866,210.06417 L 263.67507,255.41655 L 277.73226,210.06417 L 291.63553,210.06417 L 267.31763,286.25001 M 346.11995,261.67559 L 306.8727,261.67559 C 307.1121,266.05351 308.617,269.45665 311.38741,271.885 C 314.15778,274.31338 317.88584,275.52757 322.5716,275.52756 C 328.42017,275.52757 332.86648,274.00556 335.91053,270.96154 L 340.88698,280.76052 C 336.37222,284.42018 329.63435,286.25001 320.67337,286.25001 C 312.29376,286.25001 305.6585,283.80454 300.76757,278.9136 C 295.91082,273.98846 293.48245,267.13089 293.48246,258.34085 C 293.48245,249.68768 296.15024,242.6762 301.48582,237.30638 C 306.85558,231.93665 313.28562,229.25177 320.77597,229.25171 C 328.74509,229.25177 335.14094,231.62883 339.96352,236.38291 C 344.786,241.13709 347.19727,247.19091 347.19733,254.54439 C 347.19727,256.11773 346.83814,258.49479 346.11995,261.67559 M 307.33443,252.03051 L 334.32012,252.03051 C 333.43082,243.99299 328.98451,239.97421 320.98119,239.97416 C 313.66185,239.97421 309.11294,243.99299 307.33443,252.03051 M 359.61279,209.80765 L 372.43869,206.72943 L 372.43869,268.49896 C 372.43867,275.27105 374.4566,279.30693 378.49251,280.60661 C 376.50875,284.36888 373.12271,286.25001 368.3344,286.25001 C 362.51998,286.25001 359.61278,282.21413 359.61279,274.14236 L 359.61279,209.80765 M 390.60017,209.80765 L 403.42607,206.72943 L 403.42607,268.49896 C 403.42605,275.27105 405.44399,279.30693 409.47989,280.60661 C 407.49613,284.36888 404.11009,286.25001 399.32178,286.25001 C 393.50736,286.25001 390.60016,282.21413 390.60017,274.14236 L 390.60017,209.80765 M 480.7406,286.25001 L 475.25111,286.25001 L 458.83396,238.84548 L 442.87854,286.25001 L 437.38906,286.25001 L 412.71203,210.06417 L 426.6153,210.06417 L 440.72379,255.41655 L 455.96096,210.06417 L 461.80957,210.06417 L 477.09804,255.41655 L 491.15523,210.06417 L 505.0585,210.06417 L 480.7406,286.25001 M 559.54291,261.67559 L 520.29566,261.67559 C 520.53506,266.05351 522.03996,269.45665 524.81037,271.885 C 527.58074,274.31338 531.3088,275.52757 535.99456,275.52756 C 541.84313,275.52757 546.28944,274.00556 549.33349,270.96154 L 554.30994,280.76052 C 549.79518,284.42018 543.05731,286.25001 534.09632,286.25001 C 525.71671,286.25001 519.08145,283.80454 514.19053,278.9136 C 509.33378,273.98846 506.90541,267.13089 506.90542,258.34085 C 506.90541,249.68768 509.5732,242.6762 514.90878,237.30638 C 520.27854,231.93665 526.70858,229.25177 534.19893,229.25171 C 542.16805,229.25177 548.56389,231.62883 553.38648,236.38291 C 558.20896,241.13709 560.62023,247.19091 560.62028,254.54439 C 560.62023,256.11773 560.2611,258.49479 559.54291,261.67559 M 520.75739,252.03051 L 547.74308,252.03051 C 546.85378,243.99299 542.40747,239.97421 534.40415,239.97416 C 527.08481,239.97421 522.53589,243.99299 520.75739,252.03051 M 573.03576,209.80765 L 585.86166,206.72943 L 585.86166,268.49896 C 585.86164,275.27105 587.87958,279.30693 591.91549,280.60661 C 589.93172,284.36888 586.54569,286.25001 581.75737,286.25001 C 575.94295,286.25001 573.03575,282.21413 573.03576,274.14236 L 573.03576,209.80765 M 604.02313,209.80765 L 616.84903,206.72943 L 616.84903,268.49896 C 616.849,275.27105 618.86694,279.30693 622.90285,280.60661 C 620.91909,284.36888 617.53305,286.25001 612.74474,286.25001 C 606.93032,286.25001 604.02312,282.21413 604.02313,274.14236 L 604.02313,209.80765"
       id="text2177" />
    <path
       style="fill:#db4d04;fill-opacity:0.78431373;stroke:#000000;stroke-width:2.0703392;stroke-linecap:butt;stroke-linejoin:miter;stroke-miterlimit:13.80000019;stroke-dashoffset:0;stroke-opacity:1"
       d="M 134.90883,222.9052 L 146.76316,211.05127 L 165.09695,229.38542 L 183.43143,211.05127 L 195.28503,222.9052 L 165.09695,253.09331 L 134.90883,222.9052 z "
       id="path2181" />
    <path
       style="fill:#e7ed00;fill-opacity:0.78431373;stroke:#000000;stroke-width:2.0703392;stroke-linecap:butt;stroke-linejoin:miter;stroke-miterlimit:13.80000019;stroke-dashoffset:0;stroke-opacity:1"
       d="M 98.232407,222.74902 L 110.0867,210.89506 L 128.42052,229.22917 L 146.75501,210.89506 L 158.60864,222.74902 L 128.42052,252.93713 L 98.232407,222.74902 z "
       id="path2183" />
    <path
       style="fill:#080065;fill-opacity:0.78431373;stroke:#000000;stroke-width:2.0703392;stroke-linecap:butt;stroke-linejoin:miter;stroke-miterlimit:13.80000019;stroke-dashoffset:0;stroke-opacity:1"
       d="M 158.68548,254.45109 L 146.83118,242.59713 L 128.4974,260.93125 L 110.16291,242.59713 L 98.309277,254.45109 L 128.4974,284.63921 L 158.68548,254.45109 z "
       id="path2185" />
    <path
       style="fill:#00b9ed;fill-opacity:0.78431373;stroke:#000000;stroke-width:2.0703392;stroke-linecap:butt;stroke-linejoin:miter;stroke-miterlimit:13.80000019;stroke-dashoffset:0;stroke-opacity:1"
       d="M 195.40753,254.32167 L 183.5532,242.46774 L 165.21942,260.80189 L 146.8849,242.46774 L 135.0313,254.32167 L 165.21942,284.50978 L 195.40753,254.32167 z "
       id="path2187" />
    <path
       style="font-size:43.88175583px;font-style:normal;font-variant:normal;font-weight:normal;font-stretch:normal;text-align:start;line-height:100%;writing-mode:lr-tb;text-anchor:start;fill:#070065;fill-opacity:0.78431373;stroke:none;stroke-width:1px;stroke-linecap:butt;stroke-linejoin:miter;stroke-opacity:1;font-family:Trebuchet MS"
       d="M 203.23109,311.33871 L 200.57418,311.33871 L 200.57418,307.03196 L 203.23109,307.03196 L 203.23109,302.36095 L 208.58774,300.3897 L 208.58774,307.03196 L 214.88718,307.03196 L 214.88718,311.33871 L 208.58774,311.33871 L 208.58774,321.38781 C 208.58774,323.03052 208.84486,324.1947 209.3591,324.88035 C 209.87333,325.55172 210.77325,325.88741 212.05886,325.8874 C 213.34444,325.88741 214.54434,325.53744 215.65854,324.8375 L 215.65854,329.76562 C 214.41578,330.19416 212.64451,330.40842 210.34473,330.40842 C 208.05921,330.40842 206.30223,329.76562 205.07378,328.48002 C 203.84531,327.18014 203.23108,325.33746 203.23109,322.95195 L 203.23109,311.33871 M 234.66396,329.97989 L 234.66396,315.83831 C 234.66395,314.42416 234.22113,313.28855 233.33551,312.43147 C 232.44986,311.57442 231.29282,311.14589 229.8644,311.14587 C 228.97875,311.14589 228.08597,311.38873 227.18607,311.87438 C 226.28614,312.34578 225.64334,312.88859 225.25767,313.5028 L 225.25767,329.97989 L 219.8153,329.97989 L 219.8153,298.48273 L 225.25767,297.19713 L 225.25767,308.48897 C 226.64325,307.23196 228.55022,306.60345 230.97858,306.60343 C 233.84973,306.60345 236.0781,307.40338 237.66369,309.00321 C 239.24924,310.5888 240.04203,312.86716 240.04205,315.83831 L 240.04205,329.97989 L 234.66396,329.97989 M 266.35396,320.14506 L 249.96259,320.14506 C 250.06257,321.97348 250.69108,323.39478 251.84813,324.40896 C 253.00516,325.42316 254.56216,325.93026 256.51914,325.93025 C 258.96176,325.93026 260.81873,325.2946 262.09006,324.02328 L 264.16845,328.11577 C 262.28288,329.64421 259.46885,330.40842 255.72635,330.40842 C 252.22666,330.40842 249.45548,329.38709 247.41282,327.34441 C 245.38442,325.28746 244.37023,322.42344 244.37023,318.75233 C 244.37023,315.13839 245.48442,312.21008 247.71279,309.96741 C 249.95544,307.72478 252.64091,306.60345 255.7692,306.60343 C 259.09746,306.60345 261.76864,307.59622 263.78277,309.58173 C 265.79685,311.56728 266.8039,314.09562 266.80392,317.16676 C 266.8039,317.82385 266.65391,318.81662 266.35396,320.14506 M 250.15542,316.11685 L 261.42584,316.11685 C 261.05442,312.76003 259.19745,311.08161 255.85491,311.08159 C 252.79803,311.08161 250.89821,312.76003 250.15542,316.11685 M 288.46626,298.35417 C 289.16619,298.3542 289.75899,298.60418 290.24467,299.1041 C 290.74461,299.5898 290.99459,300.17546 290.9946,300.86109 C 290.99459,301.56105 290.74461,302.161 290.24467,302.66092 C 289.75899,303.14662 289.16619,303.38946 288.46626,303.38943 C 287.7806,303.38946 287.18779,303.14662 286.68785,302.66092 C 286.20217,302.161 285.95933,301.56105 285.95934,300.86109 C 285.95933,300.16118 286.20217,299.56838 286.68785,299.08268 C 287.17351,298.59704 287.76631,298.3542 288.46626,298.35417 M 286.23789,329.97989 L 286.23789,310.46022 L 283.08817,310.46022 L 283.08817,307.03196 L 290.30895,307.03196 L 290.30895,329.97989 L 286.23789,329.97989 M 310.89994,329.97989 L 310.89994,316.63109 C 310.89993,314.18847 310.52853,312.48148 309.78576,311.51013 C 309.05724,310.52452 307.82878,310.03171 306.10038,310.03169 C 305.17188,310.03171 304.20054,310.31025 303.18635,310.86733 C 302.17215,311.42444 301.39365,312.11009 300.85085,312.92428 L 300.85085,329.97989 L 296.77979,329.97989 L 296.77979,307.03196 L 299.56525,307.03196 L 300.85085,309.98884 C 302.19358,307.73192 304.38623,306.60345 307.42883,306.60343 C 312.45693,306.60345 314.97098,309.66031 314.971,315.77403 L 314.971,329.97989 L 310.89994,329.97989 M 322.23463,310.24595 L 319.57773,310.24595 L 319.57773,307.03196 L 322.23463,307.03196 L 322.23463,302.23239 L 326.30569,300.66825 L 326.30569,307.03196 L 332.60513,307.03196 L 332.60513,310.24595 L 326.30569,310.24595 L 326.30569,321.64493 C 326.30569,323.57333 326.62708,324.94463 327.26989,325.75884 C 327.92697,326.57306 328.97687,326.98016 330.41961,326.98016 C 331.46236,326.98016 332.54083,326.7159 333.65503,326.18737 L 334.25498,329.76562 C 332.5694,330.19416 330.71957,330.40842 328.70548,330.40842 C 326.89135,330.40842 325.35577,329.73705 324.09875,328.39432 C 322.856,327.0373 322.23463,325.33031 322.23463,323.27335 L 322.23463,310.24595 M 357.50289,318.90232 L 340.96152,318.90232 C 340.96152,321.5878 341.69716,323.65189 343.16847,325.09462 C 344.46834,326.35165 346.13962,326.98016 348.1823,326.98016 C 350.51065,326.98016 352.45333,326.30165 354.01034,324.94463 L 355.72448,327.88008 C 355.09594,328.50859 354.13174,329.0514 352.83188,329.5085 C 351.20344,330.10845 349.38932,330.40842 347.38951,330.40842 C 344.50405,330.40842 342.05427,329.42994 340.04018,327.47297 C 337.79752,325.31603 336.67619,322.41629 336.67619,318.77376 C 336.67619,314.9884 337.82609,311.95296 340.12588,309.66744 C 342.18283,307.62479 344.61833,306.60345 347.43237,306.60343 C 350.70348,306.60345 353.26754,307.52479 355.12453,309.36746 C 356.92435,311.13875 357.82426,313.48854 357.82429,316.41683 C 357.82426,317.31676 357.71713,318.14525 357.50289,318.90232 M 347.62521,310.03169 C 345.81107,310.03171 344.28978,310.61737 343.06133,311.78867 C 341.89,312.90288 341.22578,314.28846 341.06865,315.94544 L 353.77465,315.94544 C 353.77463,314.30275 353.26039,312.93144 352.23193,311.83153 C 351.10345,310.63165 349.56787,310.03171 347.62521,310.03169 M 374.55849,310.95303 C 373.67284,310.33882 372.78006,310.03171 371.88016,310.03169 C 370.43742,310.03171 369.17325,310.69593 368.08764,312.02437 C 367.0163,313.35283 366.48064,314.95269 366.48064,316.82393 L 366.48064,329.97989 L 362.40958,329.97989 L 362.40958,307.03196 L 366.48064,307.03196 L 366.48064,310.69591 C 367.96622,307.96761 370.17316,306.60345 373.10148,306.60343 C 373.82997,306.60345 374.87987,306.73201 376.25119,306.98911 L 374.55849,310.95303 M 396.45651,308.89608 L 394.44241,311.76725 C 394.02814,311.35302 393.29249,310.9602 392.23546,310.58878 C 391.19268,310.21741 390.16421,310.03171 389.15003,310.03169 C 386.93593,310.03171 385.17895,310.81021 383.87907,312.36719 C 382.57918,313.90993 381.92924,316.03116 381.92925,318.7309 C 381.92924,321.41638 382.59347,323.4662 383.92193,324.88035 C 385.25037,326.28023 387.09306,326.98016 389.45,326.98016 C 391.27839,326.98016 393.12108,326.27308 394.97807,324.85892 L 396.58507,328.28718 C 394.39953,329.70134 391.69264,330.40842 388.46437,330.40842 C 385.33608,330.40842 382.7506,329.35852 380.70793,327.25871 C 378.66526,325.1589 377.64392,322.3163 377.64392,318.7309 C 377.64392,315.07411 378.70097,312.13866 380.81506,309.92456 C 382.94344,307.71049 385.85031,306.60345 389.53571,306.60343 C 390.7213,306.60345 392.0069,306.85343 393.3925,307.35336 C 394.77807,307.85334 395.79941,308.36757 396.45651,308.89608 M 415.05484,329.97989 L 415.05484,315.55976 C 415.05482,313.84565 414.63343,312.49577 413.79067,311.51013 C 412.94787,310.52452 411.76226,310.03171 410.23384,310.03169 C 409.24821,310.03171 408.25544,310.32454 407.25554,310.91018 C 406.26991,311.48158 405.51283,312.15294 404.98432,312.92428 L 404.98432,329.97989 L 400.91326,329.97989 L 400.91326,297.62566 L 404.98432,297.62566 L 404.98432,309.5603 C 405.52712,308.71754 406.39847,308.01761 407.59837,307.46049 C 408.81253,306.88914 410.06242,306.60345 411.34803,306.60343 C 413.77637,306.60345 415.67619,307.40338 417.04752,309.00321 C 418.43308,310.60308 419.12588,312.7886 419.1259,315.55976 L 419.1259,329.97989 L 415.05484,329.97989 M 437.87421,327.34441 C 436.24577,329.38709 433.75314,330.40842 430.39631,330.40842 C 428.59647,330.40842 427.03232,329.75848 425.70388,328.4586 C 424.38971,327.14443 423.73262,325.51601 423.73262,323.57332 C 423.73262,321.24497 424.74682,319.28086 426.77521,317.681 C 428.81787,316.06687 431.41764,315.2598 434.5745,315.25979 C 435.43156,315.2598 436.4029,315.4455 437.48853,315.81688 C 437.48851,312.10295 435.83152,310.24597 432.51755,310.24595 C 429.97491,310.24597 428.01795,310.93163 426.64665,312.30291 L 424.93252,308.89608 C 425.70387,308.26758 426.76806,307.73192 428.12509,307.28908 C 429.49638,306.832 430.80341,306.60345 432.04616,306.60343 C 435.37442,306.60345 437.78848,307.36052 439.28836,308.87465 C 440.80249,310.38882 441.55957,312.79574 441.55959,316.09543 L 441.55959,324.32326 C 441.55957,326.33736 442.15951,327.6801 443.35943,328.35146 L 443.35943,330.387 C 441.70241,330.38699 440.45967,330.1513 439.63119,329.67992 C 438.81696,329.20853 438.2313,328.43003 437.87421,327.34441 M 437.48853,318.70948 C 436.20291,318.4238 435.303,318.28096 434.78877,318.28094 C 432.7318,318.28096 431.05338,318.80948 429.75351,319.86652 C 428.45362,320.92357 427.80368,322.17346 427.80369,323.61618 C 427.80368,326.00168 429.21069,327.19443 432.02473,327.19443 C 434.08168,327.19443 435.90294,326.21595 437.48853,324.25898 L 437.48853,318.70948 M 462.0863,329.97989 L 462.0863,316.63109 C 462.08628,314.18847 461.71489,312.48148 460.97211,311.51013 C 460.24359,310.52452 459.01513,310.03171 457.28673,310.03169 C 456.35823,310.03171 455.38689,310.31025 454.37271,310.86733 C 453.35851,311.42444 452.58001,312.11009 452.0372,312.92428 L 452.0372,329.97989 L 447.96614,329.97989 L 447.96614,307.03196 L 450.75161,307.03196 L 452.0372,309.98884 C 453.37993,307.73192 455.57259,306.60345 458.61518,306.60343 C 463.64328,306.60345 466.15734,309.66031 466.15736,315.77403 L 466.15736,329.97989 L 462.0863,329.97989 M 471.12835,336.25789 L 473.3353,333.00104 C 475.7065,334.58661 477.89202,335.3794 479.89185,335.3794 C 481.73453,335.3794 483.18439,335.058 484.24146,334.4152 C 485.31277,333.78668 485.84844,333.00104 485.84845,332.05827 C 485.84844,330.2013 484.5057,329.27281 481.82025,329.27281 C 481.36313,329.27281 480.53464,329.38709 479.33476,329.61564 C 478.13485,329.84419 477.19923,329.95846 476.52787,329.95846 C 473.27101,329.95846 471.64259,328.73 471.64259,326.27308 C 471.64259,325.51601 472.02113,324.83036 472.7782,324.21612 C 473.54956,323.6019 474.49947,323.15908 475.62795,322.88767 C 472.39966,321.37353 470.78553,318.7452 470.78553,315.00267 C 470.78553,312.6029 471.62116,310.60308 473.29244,309.00321 C 474.96372,307.40338 477.02781,306.60345 479.48474,306.60343 C 481.74167,306.60345 483.50579,307.06769 484.77712,307.99616 L 486.81265,305.55352 L 489.46956,308.06044 L 487.02692,309.90313 C 488.06966,311.26017 488.59104,313.03143 488.59106,315.21693 C 488.59104,317.53102 487.86968,319.4737 486.42697,321.04498 C 484.98423,322.61627 483.09155,323.51619 480.74891,323.74474 L 477.38493,324.08756 C 476.98496,324.13042 476.44929,324.28755 475.77793,324.55895 C 475.10656,324.81607 474.77088,325.1589 474.77088,325.58743 C 474.77088,326.17309 475.47081,326.46592 476.87069,326.46592 C 477.48491,326.46592 478.44197,326.35879 479.74186,326.14452 C 481.04173,325.91597 482.00593,325.8017 482.63446,325.80169 C 484.89138,325.8017 486.64836,326.34451 487.90541,327.43012 C 489.1767,328.50145 489.81236,329.99417 489.81238,331.90829 C 489.81236,334.02238 488.86245,335.72936 486.96264,337.02925 C 485.07708,338.32913 482.68444,338.97907 479.78472,338.97908 C 478.29913,338.97907 476.73498,338.71481 475.09228,338.18629 C 473.44957,337.65776 472.12826,337.01496 471.12835,336.25789 M 479.76329,309.8817 C 478.34912,309.88172 477.19208,310.38168 476.29217,311.38157 C 475.40653,312.38149 474.96372,313.59567 474.96372,315.0241 C 474.96372,316.62396 475.39225,317.95241 476.24932,319.00945 C 477.12066,320.05222 478.29198,320.5736 479.76329,320.57359 C 481.206,320.5736 482.33447,320.06651 483.1487,319.0523 C 483.96289,318.02384 484.37,316.6811 484.37002,315.0241 C 484.37,313.59567 483.92718,312.38149 483.04156,311.38157 C 482.1702,310.38168 481.07744,309.88172 479.76329,309.8817 M 513.3174,318.90232 L 496.77604,318.90232 C 496.77603,321.5878 497.51168,323.65189 498.98298,325.09462 C 500.28285,326.35165 501.95413,326.98016 503.99681,326.98016 C 506.32516,326.98016 508.26784,326.30165 509.82486,324.94463 L 511.53899,327.88008 C 510.91046,328.50859 509.94626,329.0514 508.64639,329.5085 C 507.01795,330.10845 505.20383,330.40842 503.20403,330.40842 C 500.31856,330.40842 497.86879,329.42994 495.85469,327.47297 C 493.61203,325.31603 492.49071,322.41629 492.49071,318.77376 C 492.49071,314.9884 493.6406,311.95296 495.9404,309.66744 C 497.99735,307.62479 500.43284,306.60345 503.24688,306.60343 C 506.518,306.60345 509.08205,307.52479 510.93904,309.36746 C 512.73886,311.13875 513.63878,313.48854 513.6388,316.41683 C 513.63878,317.31676 513.53164,318.14525 513.3174,318.90232 M 503.43972,310.03169 C 501.62559,310.03171 500.1043,310.61737 498.87585,311.78867 C 497.70452,312.90288 497.04029,314.28846 496.88317,315.94544 L 509.58917,315.94544 C 509.58915,314.30275 509.07491,312.93144 508.04645,311.83153 C 506.91796,310.63165 505.38239,310.03171 503.43972,310.03169 M 529.68735,328.50145 L 531.59432,324.23755 C 533.19417,325.50887 535.00115,326.14452 537.01526,326.14452 C 539.10077,326.14452 540.14353,325.40174 540.14355,323.91615 C 540.14353,323.04481 539.82928,322.33059 539.20077,321.77349 C 538.57225,321.2164 537.35093,320.55932 535.53682,319.80224 C 531.58003,318.15954 529.60164,315.85975 529.60164,312.90286 C 529.60164,310.91734 530.35871,309.37463 531.87286,308.2747 C 533.38701,307.16054 535.32254,306.60345 537.67948,306.60343 C 540.06497,306.60345 542.30762,307.13912 544.40745,308.21042 L 542.86473,312.36719 C 541.69339,311.3673 540.06497,310.86735 537.97946,310.86733 C 536.10819,310.86735 535.17256,311.61014 535.17257,313.0957 C 535.17256,313.68138 535.47967,314.2099 536.09391,314.68127 C 536.70813,315.15267 538.0223,315.78833 540.03641,316.58824 C 542.0505,317.3739 543.50037,318.33095 544.38602,319.45941 C 545.27164,320.58789 545.71445,321.95205 545.71447,323.5519 C 545.71445,325.68028 544.92167,327.3587 543.33611,328.58716 C 541.76481,329.80133 539.62215,330.40842 536.90812,330.40842 C 535.37968,330.40842 534.15122,330.27986 533.22274,330.02274 C 532.30853,329.77991 531.13007,329.27281 529.68735,328.50145 M 564.89133,329.97989 L 564.89133,315.83831 C 564.89131,314.42416 564.44849,313.28855 563.56288,312.43147 C 562.67723,311.57442 561.52019,311.14589 560.09176,311.14587 C 559.20611,311.14589 558.31334,311.38873 557.41343,311.87438 C 556.5135,312.34578 555.8707,312.88859 555.48503,313.5028 L 555.48503,329.97989 L 550.04267,329.97989 L 550.04267,298.48273 L 555.48503,297.19713 L 555.48503,308.48897 C 556.87061,307.23196 558.77758,306.60345 561.20595,306.60343 C 564.0771,306.60345 566.30547,307.40338 567.89106,309.00321 C 569.47661,310.5888 570.26939,312.86716 570.26941,315.83831 L 570.26941,329.97989 L 564.89133,329.97989 M 574.59758,318.45236 C 574.59758,314.95269 575.60463,312.10295 577.61874,309.90313 C 579.64712,307.70335 582.3183,306.60345 585.6323,306.60343 C 589.11768,306.60345 591.82458,307.6605 593.753,309.77457 C 595.68137,311.88868 596.64557,314.78128 596.64559,318.45236 C 596.64557,322.10918 595.65994,325.01606 593.68872,327.173 C 591.73173,329.32995 589.04626,330.40842 585.6323,330.40842 C 582.14689,330.40842 579.43285,329.32281 577.49018,327.15157 C 575.56178,324.96606 574.59758,322.06632 574.59758,318.45236 M 580.16851,318.45236 C 580.1685,323.50905 581.98976,326.03739 585.6323,326.03739 C 587.30356,326.03739 588.62487,325.38031 589.59623,324.06614 C 590.58184,322.75198 591.07465,320.88072 591.07467,318.45236 C 591.07465,313.46711 589.26053,310.97448 585.6323,310.97446 C 583.96101,310.97448 582.63256,311.63156 581.64694,312.94571 C 580.66131,314.25989 580.1685,316.09544 580.16851,318.45236 M 605.88046,329.40137 L 605.88046,338.97908 L 600.5238,338.97908 L 600.5238,307.03196 L 605.88046,307.03196 L 605.88046,308.57468 C 607.22319,307.26053 608.87304,306.60345 610.83001,306.60343 C 618.14362,306.60345 621.80043,310.63165 621.80045,318.68805 C 621.80043,322.44486 620.78624,325.33746 618.75787,327.36584 C 616.74375,329.39423 613.98686,330.40842 610.48719,330.40842 C 608.80162,330.40842 607.26604,330.07274 605.88046,329.40137 M 605.88046,312.64574 L 605.88046,324.70894 C 606.85179,325.49458 607.9874,325.88741 609.2873,325.8874 C 611.75849,325.88741 613.52976,325.30174 614.6011,324.13042 C 615.6867,322.94482 616.22951,321.0807 616.22953,318.53806 C 616.22951,315.82404 615.69384,313.91707 614.62253,312.81715 C 613.55118,311.70298 611.77992,311.14589 609.30872,311.14587 C 608.02312,311.14589 606.88036,311.64585 605.88046,312.64574"
       id="text2189" />
  </g>
</svg>
